<svg width="20" height="20" viewBox="0 0 20 20" fill="none" xmlns="http://www.w3.org/2000/svg">
<path d="M12.5641 3.1689C13.2458 2.95385 13.9837 2.94391 14.6719 3.14051C15.3602 3.33711 15.9633 3.73014 16.3947 4.26319C17.1053 4.05385 17.8055 3.81596 18.5263 3.60662C18.5164 3.92585 18.4299 4.23907 18.2732 4.52372C18.1165 4.80837 17.8935 5.05738 17.6201 5.2528C17.8726 5.27877 18.1281 5.25112 18.3673 5.17197C18.6064 5.09281 18.8228 4.96424 19 4.79606C18.901 5.20987 18.6999 5.59695 18.4123 5.92708C18.1247 6.2572 17.7585 6.52144 17.3421 6.69916C17.095 12.9699 13.9748 17.1662 6.65332 16.9949H6.14874C5.70595 16.9949 1.73112 16.5667 1 15.2441C2.75201 15.4899 4.53888 15.0976 5.98398 14.1498C4.95423 13.8643 3.13158 13.7026 2.82265 11.4093C3.2108 11.5434 3.6321 11.5731 4.03776 11.495C2.76087 10.7052 1.33982 10.0391 1.4222 7.99327C1.81963 8.29882 2.3269 8.45507 2.84325 8.43098C2.10183 8.20261 0.75286 5.30989 1.89588 3.82547C3.82151 5.54778 5.86041 7.17493 9.48512 7.3367C9.71167 5.20522 10.6899 3.7779 12.5641 3.1689Z" fill="#D22856"/>
</svg>
