<svg width="20" height="20" viewBox="0 0 20 20" fill="none" xmlns="http://www.w3.org/2000/svg">
<path d="M4.83356 16.8089C4.64633 16.9278 4.42471 16.9941 4.19626 16.9996C3.96782 17.0051 3.74263 16.9495 3.54872 16.8398C3.3548 16.7301 3.20072 16.571 3.10565 16.3824C3.01057 16.1938 2.97869 15.984 3.01398 15.779V5.22097C2.97869 5.01605 3.01057 4.80623 3.10565 4.61763C3.20072 4.42902 3.3548 4.26995 3.54872 4.1602C3.74263 4.05045 3.96782 3.99487 4.19626 4.00037C4.42471 4.00587 4.64633 4.07221 4.83356 4.19114L17.2333 9.69284C18.2556 10.1382 18.2556 10.8618 17.2333 11.3072L4.83356 16.8089Z" fill="#D22856"/>
</svg>
